<svg width="100" height="100" viewBox="0 0 100 100" fill="none" xmlns="http://www.w3.org/2000/svg">
<circle cx="50" cy="50" r="50" fill="#64C093" fill-opacity="0.3"/>
<path d="M50 67.5C49.9986 64.5475 50.7448 61.6426 52.1689 59.0563C53.5931 56.47 55.649 54.2863 58.1448 52.7089C60.6407 51.1315 63.4953 50.2118 66.4426 50.0354C69.3898 49.8589 72.3338 50.4316 75 51.7V35C75 32.25 72.75 30 70 30H30C27.25 30 25 32.25 25 35V65C25 67.75 27.25 70 30 70H50.2C50.075 69.175 50 68.35 50 67.5ZM30 35L50 47.5L70 35V40L50 52.5L30 40V35ZM63.35 75L54.5 66.15L58.025 62.625L63.325 67.925L73.925 57.325L77.5 60.85L63.35 75Z" fill="#64C093"/>
</svg>
